<?xml version="1.0" encoding="iso-8859-1"?>
<!-- Generator: Adobe Illustrator 19.0.0, SVG Export Plug-In . SVG Version: 6.00 Build 0)  -->
<svg version="1.1" id="Layer_1" xmlns="http://www.w3.org/2000/svg" xmlns:xlink="http://www.w3.org/1999/xlink" x="0px" y="0px"
	 viewBox="0 0 495 495" style="enable-background:new 0 0 495 495;" xml:space="preserve">
<g>
	<polygon style="fill:#C0AB91;" points="282.844,203.522 243.386,231.948 205.141,204.402 177.821,233.923 282.844,347.402 	"/>
	<polygon style="fill:#A78966;" points="360.554,204.402 322.316,231.948 282.844,203.522 282.844,347.402 282.844,374.557 
		495,374.557 495,349.665 	"/>
	<polygon style="fill:#D1E7F8;" points="282.844,203.522 282.844,120.443 205.141,204.402 243.386,231.948 	"/>
	<polygon style="fill:#B3D8F4;" points="282.844,203.522 322.316,231.948 360.554,204.402 282.844,120.443 	"/>
	<polygon style="fill:#6A563D;" points="282.844,347.402 177.821,233.923 141.422,194.594 141.422,374.557 282.844,374.557 	"/>
	<polygon style="fill:#957856;" points="141.422,194.594 0,347.403 0,374.557 141.422,374.557 	"/>
</g>
<g>
</g>
<g>
</g>
<g>
</g>
<g>
</g>
<g>
</g>
<g>
</g>
<g>
</g>
<g>
</g>
<g>
</g>
<g>
</g>
<g>
</g>
<g>
</g>
<g>
</g>
<g>
</g>
<g>
</g>
</svg>
