<?xml version="1.0" encoding="iso-8859-1"?>
<!-- Generator: Adobe Illustrator 19.0.0, SVG Export Plug-In . SVG Version: 6.00 Build 0)  -->
<svg version="1.1" id="Layer_1" xmlns="http://www.w3.org/2000/svg" xmlns:xlink="http://www.w3.org/1999/xlink" x="0px" y="0px"
	 viewBox="0 0 495 495" style="enable-background:new 0 0 495 495;" xml:space="preserve">
<g>
	<path style="fill:#6A563D;" d="M370.645,315.824c-6.507,1.096-13.187,1.676-20,1.676s-13.493-0.58-20-1.676V377.5h40V315.824z"/>
	<path style="fill:#A78966;" d="M129.355,315.101c-6.418,1.554-13.111,2.399-20,2.399s-13.582-0.845-20-2.399V377.5h40V315.101z"/>
	<rect y="377.5" style="fill:#6DC82A;" width="495" height="40"/>
	<path style="fill:#5EAC24;" d="M109.355,317.5c6.889,0,13.582-0.845,20-2.399c37.247-9.02,65-42.621,65-82.601
		c0-46.869-38.131-85-85-85V317.5z"/>
	<path style="fill:#6DC82A;" d="M109.355,147.5c-46.869,0-85,38.131-85,85c0,39.98,27.753,73.581,65,82.601
		c6.418,1.554,13.111,2.399,20,2.399V147.5z"/>
	<path style="fill:#4E901E;" d="M350.645,317.5c6.813,0,13.493-0.58,20-1.676c56.681-9.55,100-58.969,100-118.324
		c0-66.168-53.832-120-120-120V317.5z"/>
	<path style="fill:#5EAC24;" d="M350.645,77.5c-66.168,0-120,53.832-120,120c0,59.355,43.319,108.774,100,118.324
		c6.507,1.096,13.187,1.676,20,1.676V77.5z"/>
</g>
<g>
</g>
<g>
</g>
<g>
</g>
<g>
</g>
<g>
</g>
<g>
</g>
<g>
</g>
<g>
</g>
<g>
</g>
<g>
</g>
<g>
</g>
<g>
</g>
<g>
</g>
<g>
</g>
<g>
</g>
</svg>
